<svg preserveAspectRatio="none" width="100%" height="100%" overflow="visible" style="display: block;" viewBox="0 0 30 30" fill="none" xmlns="http://www.w3.org/2000/svg">
<g id="Frame 33">
<rect width="30" height="30" rx="15" fill="var(--fill-0, white)" fill-opacity="0.3"/>
<g id="dollar-sign-solid-full 1">
<path id="Vector" d="M14.25 7.75C14.25 7.33437 14.5844 7 15 7C15.4156 7 15.75 7.33437 15.75 7.75V9H17.5C18.0531 9 18.5 9.44687 18.5 10C18.5 10.5531 18.0531 11 17.5 11H13.9094C13.1313 11 12.5 11.6313 12.5 12.4094C12.5 13.1125 13.0156 13.7062 13.7094 13.8062L16.5719 14.2156C18.2531 14.4562 19.5 15.8937 19.5 17.5906C19.5 19.475 17.9719 21 16.0906 21H15.75V22.25C15.75 22.6656 15.4156 23 15 23C14.5844 23 14.25 22.6656 14.25 22.25V21H12C11.4469 21 11 20.5531 11 20C11 19.4469 11.4469 19 12 19H16.0906C16.8687 19 17.5 18.3687 17.5 17.5906C17.5 16.8875 16.9844 16.2938 16.2906 16.1938L13.4281 15.7844C11.7469 15.5469 10.5 14.1063 10.5 12.4094C10.5 10.5281 12.0281 9 13.9094 9H14.25V7.75Z" fill="var(--fill-0, #294F7C)"/>
</g>
<line id="Line 5" x1="4.66552" y1="23.6284" x2="24.6655" y2="5.62835" stroke="var(--stroke-0, #294F7C)"/>
</g>
</svg>
