<svg preserveAspectRatio="none" width="100%" height="100%" overflow="visible" style="display: block;" viewBox="0 0 20 20" fill="none" xmlns="http://www.w3.org/2000/svg">
<g id="ban-solid-full 1">
<path id="Vector" d="M13.475 14.8906L5.10938 6.525C4.40938 7.50625 4 8.70625 4 10C4 13.3125 6.6875 16 10 16C11.2969 16 12.4969 15.5906 13.475 14.8906ZM14.8906 13.475C15.5906 12.4938 16 11.2938 16 10C16 6.6875 13.3125 4 10 4C8.70312 4 7.50313 4.40938 6.525 5.10938L14.8906 13.475ZM2 10C2 5.58125 5.58125 2 10 2C14.4187 2 18 5.58125 18 10C18 14.4187 14.4187 18 10 18C5.58125 18 2 14.4187 2 10Z" fill="var(--fill-0, #294F7C)"/>
</g>
</svg>
