<svg width="22" height="25" viewBox="0 0 22 25" fill="none" xmlns="http://www.w3.org/2000/svg">
<path d="M4.97633 18.2752L6.40851e-06 20.4646L4.19754 24.4112L5.70336 18.9588L4.97633 18.2752ZM16.5802 6.13598L21.5566 3.94658L17.359 -2.02035e-06L15.8532 5.45241L16.5802 6.13598ZM5.35359 18.6008L5.71711 18.9426L7.88698 16.3845L7.52347 16.0427L7.15995 15.7009L4.99007 18.259L5.35359 18.6008ZM9.69334 13.4846L10.0569 13.8264L12.2267 11.2683L11.8632 10.9265L11.4997 10.5848L9.32983 13.1428L9.69334 13.4846ZM14.0331 8.36847L14.3966 8.71026L16.5665 6.15219L16.203 5.8104L15.8395 5.46862L13.6696 8.02669L14.0331 8.36847Z" fill="#7A7A7A"/>
</svg>
