<svg preserveAspectRatio="none" width="100%" height="100%" overflow="visible" style="display: block;" viewBox="0 0 26.9919 6.8548" fill="none" xmlns="http://www.w3.org/2000/svg">
<path id="Line 123" d="M5.09268 3.26806L0 1.08605L0.234144 6.8548L5.13324 4.26724L5.09268 3.26806ZM21.8992 3.58674L26.9919 5.76875L26.7577 0L21.8586 2.58756L21.8992 3.58674ZM5.13415 3.76679L5.15442 4.26638L8.49914 4.13062L8.47886 3.63104L8.45858 3.13145L5.11387 3.2672L5.13415 3.76679ZM11.8236 3.49528L11.8439 3.99487L15.1886 3.85911L15.1683 3.35952L15.148 2.85993L11.8033 2.99569L11.8236 3.49528ZM18.513 3.22377L18.5333 3.72336L21.878 3.5876L21.8577 3.08801L21.8374 2.58842L18.4927 2.72418L18.513 3.22377Z" fill="var(--stroke-0, #7A7A7A)"/>
</svg>
