<svg preserveAspectRatio="none" width="100%" height="100%" overflow="visible" style="display: block;" viewBox="0 0 28.7674 6.92678" fill="none" xmlns="http://www.w3.org/2000/svg">
<path id="Line 123" d="M5.09267 3.34005L0 1.15802L0.234125 6.92678L5.13323 4.33923L5.09267 3.34005ZM23.6747 3.58672L28.7674 5.76875L28.5333 0L23.6342 2.58755L23.6747 3.58672ZM4.39705 3.8687L4.41733 4.36828L7.27066 4.25248L7.25038 3.75289L7.23011 3.2533L4.37678 3.36911L4.39705 3.8687ZM10.1037 3.63709L10.124 4.13668L12.9773 4.02088L12.957 3.52129L12.9368 3.0217L10.0834 3.1375L10.1037 3.63709ZM15.8104 3.40549L15.8306 3.90508L18.684 3.78927L18.6637 3.28968L18.6434 2.7901L15.7901 2.9059L15.8104 3.40549ZM21.517 3.17388L21.5373 3.67347L24.3906 3.55767L24.3703 3.05808L24.3501 2.55849L21.4967 2.67429L21.517 3.17388Z" fill="var(--stroke-0, #7A7A7A)"/>
</svg>
