<svg preserveAspectRatio="none" width="100%" height="100%" overflow="visible" style="display: block;" viewBox="0 0 40 40" fill="none" xmlns="http://www.w3.org/2000/svg">
<g id="camera-regular-full 1">
<rect width="40" height="40" rx="20" fill="var(--fill-0, #CFE6F7)"/>
<path id="Vector" d="M17.543 11C16.8125 11 16.1289 11.3777 15.7227 12.0004L14.707 13.5714H12.5C11.1211 13.5714 10 14.7246 10 16.1429V26.4286C10 27.8469 11.1211 29 12.5 29H27.5C28.8789 29 30 27.8469 30 26.4286V16.1429C30 14.7246 28.8789 13.5714 27.5 13.5714H25.293L24.2773 12.0004C23.8711 11.3777 23.1875 11 22.457 11H17.543ZM17.2812 13.0732C17.3398 12.9848 17.4375 12.9286 17.543 12.9286H22.4531C22.5586 12.9286 22.6562 12.9808 22.7148 13.0732L24.0117 15.0741C24.1875 15.3433 24.4766 15.504 24.793 15.504H27.5C27.8438 15.504 28.125 15.7933 28.125 16.1469V26.4326C28.125 26.7862 27.8438 27.0754 27.5 27.0754L12.5 27.0714C12.1562 27.0714 11.875 26.7821 11.875 26.4286V16.1429C11.875 15.7893 12.1562 15.5 12.5 15.5H15.207C15.5195 15.5 15.8125 15.3393 15.9883 15.0701L17.2852 13.0692L17.2812 13.0732ZM20 25.1429C22.418 25.1429 24.375 23.1299 24.375 20.6429C24.375 18.1558 22.418 16.1429 20 16.1429C17.582 16.1429 15.625 18.1558 15.625 20.6429C15.625 23.1299 17.582 25.1429 20 25.1429ZM17.5 20.6429C17.5 19.2246 18.6211 18.0714 20 18.0714C21.3789 18.0714 22.5 19.2246 22.5 20.6429C22.5 22.0612 21.3789 23.2143 20 23.2143C18.6211 23.2143 17.5 22.0612 17.5 20.6429Z" fill="var(--fill-0, #294F7C)"/>
</g>
</svg>
