<svg preserveAspectRatio="none" width="100%" height="100%" overflow="visible" style="display: block;" viewBox="0 0 15 15" fill="none" xmlns="http://www.w3.org/2000/svg">
<g id="Frame">
<path id="Vector" fill-rule="evenodd" clip-rule="evenodd" d="M9.13437 0.996875C9.22589 1.04781 9.2977 1.12793 9.33837 1.22444C9.37904 1.32095 9.38621 1.42831 9.35875 1.52937L8.11375 6.09375H12.6562C12.7476 6.09375 12.837 6.12045 12.9133 6.17056C12.9897 6.22067 13.0498 6.292 13.0862 6.3758C13.1226 6.45959 13.1337 6.55219 13.1181 6.64221C13.1026 6.73223 13.0611 6.81575 12.9987 6.8825L6.43625 13.9137C6.36477 13.9905 6.26962 14.0411 6.16602 14.0573C6.06241 14.0736 5.95634 14.0547 5.86476 14.0036C5.77318 13.9525 5.70139 13.8721 5.66087 13.7754C5.62035 13.6787 5.61344 13.5711 5.64125 13.47L6.88625 8.90625H2.34375C2.2524 8.90624 2.16304 8.87955 2.08666 8.82944C2.01028 8.77933 1.9502 8.70799 1.91382 8.6242C1.87743 8.54041 1.86632 8.44781 1.88186 8.35779C1.89739 8.26777 1.93889 8.18425 2.00125 8.1175L8.56375 1.08625C8.63523 1.00978 8.73025 0.959433 8.83366 0.943235C8.93708 0.927038 9.04294 0.945921 9.13437 0.996875Z" fill="var(--fill-0, #294F7C)"/>
</g>
</svg>
