<svg preserveAspectRatio="none" width="100%" height="100%" overflow="visible" style="display: block;" viewBox="0 0 25 25" fill="none" xmlns="http://www.w3.org/2000/svg">
<g id="calendar-regular-full 1">
<path id="Vector" d="M8.4375 2.5C8.95703 2.5 9.375 2.91797 9.375 3.4375V5H15.625V3.4375C15.625 2.91797 16.043 2.5 16.5625 2.5C17.082 2.5 17.5 2.91797 17.5 3.4375V5H18.75C20.1289 5 21.25 6.12109 21.25 7.5V18.75C21.25 20.1289 20.1289 21.25 18.75 21.25H6.25C4.87109 21.25 3.75 20.1289 3.75 18.75V7.5C3.75 6.12109 4.87109 5 6.25 5H7.5V3.4375C7.5 2.91797 7.91797 2.5 8.4375 2.5ZM8.4375 6.875H6.25C5.90625 6.875 5.625 7.15625 5.625 7.5V9.375H19.375V7.5C19.375 7.15625 19.0938 6.875 18.75 6.875H8.4375ZM5.625 11.25V18.75C5.625 19.0938 5.90625 19.375 6.25 19.375H18.75C19.0938 19.375 19.375 19.0938 19.375 18.75V11.25H5.625Z" fill="var(--fill-0, #294F7C)"/>
</g>
</svg>
