<svg preserveAspectRatio="none" width="100%" height="100%" overflow="visible" style="display: block;" viewBox="0 0 15 15" fill="none" xmlns="http://www.w3.org/2000/svg">
<g id="circle-info-solid-full 1">
<path id="Vector" d="M7.5 13.5C10.8141 13.5 13.5 10.8141 13.5 7.5C13.5 4.18594 10.8141 1.5 7.5 1.5C4.18594 1.5 1.5 4.18594 1.5 7.5C1.5 10.8141 4.18594 13.5 7.5 13.5ZM6.75 5.25C6.75 4.83516 7.08516 4.5 7.5 4.5C7.91484 4.5 8.25 4.83516 8.25 5.25C8.25 5.66484 7.91484 6 7.5 6C7.08516 6 6.75 5.66484 6.75 5.25ZM6.5625 6.75H7.6875C7.99922 6.75 8.25 7.00078 8.25 7.3125V9.375H8.4375C8.74922 9.375 9 9.62578 9 9.9375C9 10.2492 8.74922 10.5 8.4375 10.5H6.5625C6.25078 10.5 6 10.2492 6 9.9375C6 9.62578 6.25078 9.375 6.5625 9.375H7.125V7.875H6.5625C6.25078 7.875 6 7.62422 6 7.3125C6 7.00078 6.25078 6.75 6.5625 6.75Z" fill="var(--fill-0, #294F7C)"/>
</g>
</svg>
