<svg preserveAspectRatio="none" width="100%" height="100%" overflow="visible" style="display: block;" viewBox="0 0 20 20" fill="none" xmlns="http://www.w3.org/2000/svg">
<g id="building-columns-solid-full 1">
<path id="Vector" d="M10.4969 2.63125C10.1906 2.45625 9.8125 2.45625 9.50313 2.63125L2.50313 6.63125C2.10938 6.85625 1.91563 7.31875 2.03125 7.75625C2.14688 8.19375 2.54688 8.5 3 8.5H4V15L2.4 16.2C2.14688 16.3875 2 16.6844 2 17C2 17.5531 2.44688 18 3 18H17C17.5531 18 18 17.5531 18 17C18 16.6844 17.8531 16.3875 17.6 16.2L16 15V8.5H17C17.4531 8.5 17.85 8.19375 17.9656 7.75625C18.0813 7.31875 17.8875 6.85625 17.4938 6.63125L10.4938 2.63125H10.4969ZM14.5 8.5V15H12.5V8.5H14.5ZM11 8.5V15H9V8.5H11ZM7.5 8.5V15H5.5V8.5H7.5ZM10 5C10.5531 5 11 5.44687 11 6C11 6.55313 10.5531 7 10 7C9.44688 7 9 6.55313 9 6C9 5.44687 9.44688 5 10 5Z" fill="var(--fill-0, #294F7C)"/>
</g>
</svg>
