<svg preserveAspectRatio="none" width="100%" height="100%" overflow="visible" style="display: block;" viewBox="0 0 20 20" fill="none" xmlns="http://www.w3.org/2000/svg">
<g id="user-check-solid-full 1">
<path id="Vector" d="M8.9375 11.5C12.0156 11.5 14.5094 13.9937 14.5094 17.0719C14.5094 17.5844 14.0937 18 13.5812 18H2.4375C1.925 18 1.50937 17.5844 1.50937 17.0719C1.50937 13.9937 4.00312 11.5 7.08125 11.5H8.9375ZM18.3031 5.30937C18.5469 4.975 19.0156 4.9 19.35 5.14375C19.6844 5.3875 19.7594 5.85625 19.5156 6.19062L16.3156 10.5906C16.1844 10.7687 15.9812 10.8844 15.7625 10.8969C15.5437 10.9094 15.325 10.8281 15.1719 10.6687L13.7219 9.16875C13.4344 8.87187 13.4406 8.39687 13.7406 8.10937C14.0375 7.82187 14.5125 7.83125 14.8 8.12812L15.6281 8.98437L18.3031 5.30625V5.30937ZM8.00937 9.75C5.9375 9.75 4.25937 8.07187 4.25937 6C4.25937 3.92813 5.9375 2.25 8.00937 2.25C10.0812 2.25 11.7594 3.92813 11.7594 6C11.7594 8.07187 10.0812 9.75 8.00937 9.75Z" fill="var(--fill-0, #294F7C)"/>
</g>
</svg>
