<svg preserveAspectRatio="none" width="100%" height="100%" overflow="visible" style="display: block;" viewBox="0 0 20 20" fill="none" xmlns="http://www.w3.org/2000/svg">
<g id="indian-rupee-sign-solid-full 1">
<path id="Vector" d="M5 4C5 3.44688 5.44687 3 6 3H14.25C14.6656 3 15 3.33438 15 3.75C15 4.16563 14.6656 4.5 14.25 4.5H11.8531C12.4062 5.11875 12.7938 5.89375 12.9375 6.75H14.25C14.6656 6.75 15 7.08438 15 7.5C15 7.91563 14.6656 8.25 14.25 8.25H12.9375C12.6125 10.1938 11.0375 11.7156 9.06875 11.9656L13.5813 15.1875C14.0313 15.5094 14.1344 16.1344 13.8125 16.5813C13.4906 17.0281 12.8656 17.1344 12.4187 16.8125L5.41875 11.8125C5.06562 11.5625 4.91562 11.1094 5.04687 10.6938C5.17812 10.2781 5.56562 10 6 10H8.5C9.61875 10 10.5656 9.26563 10.8844 8.25H5.75C5.33437 8.25 5 7.91563 5 7.5C5 7.08438 5.33437 6.75 5.75 6.75H10.8844C10.5656 5.73438 9.61875 5 8.5 5H6C5.44687 5 5 4.55313 5 4Z" fill="var(--fill-0, #294F7C)"/>
</g>
</svg>
